<?xml version="1.0" encoding="UTF-8" standalone="no"?>
<!-- Copyright Browell Creative Advertising 2004 Luke@Browell.info for distribution with the Lyric Display System Lyricue under the GNU Public Licence  -->

<svg
   xmlns:dc="http://purl.org/dc/elements/1.1/"
   xmlns:cc="http://creativecommons.org/ns#"
   xmlns:rdf="http://www.w3.org/1999/02/22-rdf-syntax-ns#"
   xmlns:svg="http://www.w3.org/2000/svg"
   xmlns="http://www.w3.org/2000/svg"
   xmlns:sodipodi="http://sodipodi.sourceforge.net/DTD/sodipodi-0.dtd"
   xmlns:inkscape="http://www.inkscape.org/namespaces/inkscape"
   width="558.26306"
   height="144.65375"
   viewBox="0 0 446.61042 115.723"
   xml:space="preserve"
   id="svg2"
   version="1.1"
   inkscape:version="0.48.3.1 r9886"
   sodipodi:docname="lyricue_header.svg"
   inkscape:output_extension="org.inkscape.output.svg.inkscape"
   inkscape:export-filename="/home/cjd/source/workspace/Lyricue/res/drawable-xhdpi/ic_launcher.png"
   inkscape:export-xdpi="90"
   inkscape:export-ydpi="90"><metadata
   id="metadata75"><rdf:RDF><cc:Work
       rdf:about=""><dc:format>image/svg+xml</dc:format><dc:type
         rdf:resource="http://purl.org/dc/dcmitype/StillImage" /><dc:title /></cc:Work></rdf:RDF></metadata><defs
   id="defs73"><linearGradient
   id="linearGradient3752"><stop
     style="stop-color:#9696ff;stop-opacity:1;"
     offset="0"
     id="stop3754" /><stop
     style="stop-color:#2c26ad;stop-opacity:1;"
     offset="1"
     id="stop3756" /></linearGradient><inkscape:perspective
   sodipodi:type="inkscape:persp3d"
   inkscape:vp_x="0 : 55.774376 : 1"
   inkscape:vp_y="0 : 1000 : 0"
   inkscape:vp_z="87.167503 : 55.774376 : 1"
   inkscape:persp3d-origin="43.583752 : 37.182917 : 1"
   id="perspective77" />
		
		
		
		
		
		
		
		
		
		
		
		
		
		
		
		
		
		
		
		
		
		
		
		
		
		
		
		
		
		
		
		
		
	</defs><sodipodi:namedview
   pagecolor="#ffffff"
   bordercolor="#666666"
   borderopacity="1"
   objecttolerance="10"
   gridtolerance="10"
   guidetolerance="10"
   inkscape:pageopacity="0"
   inkscape:pageshadow="2"
   inkscape:window-width="1615"
   inkscape:window-height="1026"
   id="namedview71"
   showgrid="true"
   inkscape:zoom="1.79375"
   inkscape:cx="263.1698"
   inkscape:cy="240"
   inkscape:window-x="65"
   inkscape:window-y="24"
   inkscape:window-maximized="1"
   inkscape:current-layer="g2970"
   inkscape:snap-global="false"
   fit-margin-top="0"
   fit-margin-left="0"
   fit-margin-right="0"
   fit-margin-bottom="0"><inkscape:grid
     type="xygrid"
     id="grid3760"
     empspacing="5"
     visible="true"
     enabled="true"
     snapvisiblegridlinesonly="true"
     originx="-80.176309px"
     originy="-2.4839569px" /></sodipodi:namedview>
	<g
   id="g2937"
   transform="matrix(4.9027094,0,0,4.9027094,105.30831,-135.29082)"><path
     style="fill-rule:nonzero;stroke:none;fill:#ffffff"
     d="m 0,30.397999 c 0,-0.072 0.037,-0.109 0.11,-0.109 h 6.098 c 0.073,0 0.11,0.037 0.11,0.109 v 0.582 c 0,0.074 -0.037,0.109 -0.11,0.109 l -2.021,0.188 c -0.073,0 -0.11,0.037 -0.11,0.109 v 12.898 c 0,0.074 0.037,0.109 0.11,0.109 h 5.218 c 0.073,0 0.11,-0.029 0.11,-0.088 l 0.451,-2.504 c 0,-0.059 0.037,-0.088 0.11,-0.088 h 0.835 c 0.073,0 0.11,0.037 0.11,0.109 v 3.494 c 0,0.072 -0.037,0.109 -0.11,0.109 H 0.11 c -0.073,0 -0.11,-0.037 -0.11,-0.109 v -0.582 c 0,-0.08 0.037,-0.121 0.11,-0.121 l 1.89,-0.174 c 0.073,0 0.11,-0.037 0.11,-0.109 v -12.944 c 0,-0.072 -0.037,-0.109 -0.11,-0.109 l -1.89,-0.188 c -0.073,0 -0.11,-0.035 -0.11,-0.109 v -0.582 z"
     id="path53"
     inkscape:connector-curvature="0" /><path
     style="fill-rule:nonzero;stroke:none;fill:#ffffff"
     d="m 16.446,35.631999 c 0.081,0 0.121,0.037 0.121,0.109 v 0.572 c 0,0.059 -0.033,0.088 -0.099,0.088 l -1.165,0.131 c -0.103,0 -0.132,0.051 -0.088,0.154 l 2.648,6.416 2.725,-6.416 c 0.044,-0.104 0.015,-0.154 -0.088,-0.154 l -1.165,-0.131 c -0.066,0 -0.099,-0.029 -0.099,-0.088 v -0.572 c 0,-0.072 0.04,-0.109 0.121,-0.109 h 3.614 c 0.081,0 0.121,0.037 0.121,0.109 v 0.549 c 0,0.074 -0.041,0.111 -0.121,0.111 l -1.23,0.131 c -0.037,0.008 -0.066,0.029 -0.088,0.066 l -4.032,9.492 c -1.45,3.406 -2.71,5.109 -3.779,5.109 -0.044,0 -0.095,-0.016 -0.154,-0.045 l -1.066,-1.055 c -0.051,-0.051 -0.059,-0.104 -0.022,-0.154 l 0.275,-0.449 c 0.029,-0.029 0.066,-0.045 0.11,-0.045 0.71,0 1.289,-0.164 1.736,-0.494 0.352,-0.264 0.732,-0.74 1.143,-1.428 0.256,-0.426 0.571,-1.07 0.945,-1.934 0.029,-0.066 0.029,-0.162 0,-0.285 l -3.669,-8.691 c -0.029,-0.043 -0.059,-0.066 -0.088,-0.066 l -1.308,-0.152 c -0.059,0 -0.088,-0.029 -0.088,-0.088 v -0.572 c 0,-0.072 0.037,-0.109 0.11,-0.109 h 4.68 z"
     id="path55"
     inkscape:connector-curvature="0" /><path
     style="fill-rule:nonzero;stroke:none;fill:#ffffff"
     d="m 30.264,35.318999 c 0.227,0 0.509,0.07 0.846,0.209 0.337,0.139 0.586,0.289 0.747,0.449 0.022,0.016 0.041,0.045 0.055,0.088 0.015,0.045 0.007,0.082 -0.022,0.111 l -1.11,1.582 c -0.051,0.072 -0.091,0.109 -0.121,0.109 -0.022,0 -0.041,-0.008 -0.055,-0.021 -0.33,-0.33 -0.692,-0.496 -1.087,-0.496 -0.491,0 -0.923,0.217 -1.296,0.648 l -0.659,0.77 c -0.059,0.066 -0.088,0.146 -0.088,0.242 v 5.34 c 0,0.064 0.037,0.102 0.11,0.109 l 1.912,0.154 c 0.08,0.006 0.121,0.047 0.121,0.119 v 0.561 c 0,0.074 -0.041,0.111 -0.121,0.111 H 23.97 c -0.081,0 -0.121,-0.037 -0.121,-0.111 v -0.561 c 0,-0.08 0.04,-0.119 0.121,-0.119 l 1.571,-0.154 c 0.073,0 0.11,-0.037 0.11,-0.109 v -7.428 c 0,-0.072 -0.037,-0.109 -0.11,-0.109 l -1.615,-0.188 c -0.081,0 -0.121,-0.037 -0.121,-0.109 v -0.515 c 0,-0.074 0.029,-0.111 0.088,-0.111 l 2.703,-0.449 c 0.08,-0.016 0.128,-0.023 0.143,-0.023 h 0.626 c 0.073,0 0.11,0.037 0.11,0.111 v 2.086 l 1.197,-1.395 c 0.513,-0.6 1.043,-0.9 1.593,-0.9 z"
     id="path57"
     inkscape:connector-curvature="0" /><path
     style="fill-rule:nonzero;stroke:none;fill:#ffffff"
     d="m 32.545,45.422999 c -0.081,0 -0.121,-0.037 -0.121,-0.109 v -0.561 c 0,-0.08 0.04,-0.121 0.121,-0.121 l 1.571,-0.154 c 0.073,0 0.11,-0.035 0.11,-0.109 v -7.426 c 0,-0.074 -0.037,-0.111 -0.11,-0.111 l -1.626,-0.186 c -0.073,0 -0.11,-0.037 -0.11,-0.111 v -0.516 c 0,-0.072 0.029,-0.109 0.088,-0.109 l 2.703,-0.451 c 0.029,-0.006 0.072,-0.014 0.131,-0.021 h 0.638 c 0.073,0 0.11,0.037 0.11,0.109 v 8.822 c 0,0.074 0.036,0.109 0.109,0.109 l 1.461,0.154 c 0.08,0 0.121,0.041 0.121,0.121 v 0.561 c 0,0.072 -0.041,0.109 -0.121,0.109 h -5.076 m 2.473,-15.26 c 0.352,0 0.641,0.111 0.867,0.336 0.228,0.223 0.342,0.51 0.342,0.861 0,0.351 -0.114,0.639 -0.342,0.863 -0.227,0.223 -0.516,0.334 -0.867,0.334 -0.351,0 -0.643,-0.111 -0.874,-0.334 -0.231,-0.225 -0.346,-0.512 -0.346,-0.863 0,-0.351 0.115,-0.639 0.346,-0.861 0.23,-0.225 0.522,-0.336 0.874,-0.336 z"
     id="path59"
     inkscape:connector-curvature="0" /><path
     style="fill:#ff0000;fill-rule:nonzero;stroke:none"
     d="m 47.914,41.820999 c -0.092,1.018 -0.889,3.85 -4.5,3.85 -3.703,0 -4.555,-2.832 -4.555,-4.906 0,-3.184 1.389,-5.463 4.722,-5.463 1.556,0 4.11,0.705 4.352,3.777 h -2.63 c -0.11,-0.646 -0.518,-1.666 -1.722,-1.592 -1.63,0 -2.056,1.629 -2.056,2.852 0,1.074 0.037,3.203 2,3.203 1.314,0 1.76,-1.258 1.76,-1.721 h 2.629 z"
     id="path61"
     inkscape:connector-curvature="0" /><path
     style="fill:#ff0000;fill-rule:nonzero;stroke:none"
     d="m 58.617,45.412999 h -2.482 v -1.389 h -0.036 c -0.593,1.055 -1.63,1.646 -3,1.646 -1.944,0 -3.352,-1.109 -3.352,-3.629 v -6.48 h 2.593 v 6.111 c 0,1.518 0.889,1.814 1.685,1.814 0.853,0 2,-0.482 2,-2.24 v -5.686 h 2.593 v 9.852 z"
     id="path63"
     inkscape:connector-curvature="0" /><path
     style="fill:#ff0000;fill-rule:nonzero;stroke:none"
     d="m 69.503,42.523999 c -0.685,2.369 -2.647,3.146 -4.332,3.146 -2.777,0 -4.907,-1.332 -4.907,-5.387 0,-1.186 0.407,-4.982 4.722,-4.982 1.944,0 4.629,0.926 4.629,5.426 v 0.463 h -6.758 c 0.074,0.74 0.222,2.408 2.314,2.408 0.722,0 1.463,-0.371 1.666,-1.074 h 2.666 m -2.554,-3.019 c -0.148,-1.592 -1.166,-2.072 -2,-2.072 -1.223,0 -1.87,0.777 -2.018,2.072 h 4.018 z"
     id="path65"
     inkscape:connector-curvature="0" /></g><g
   id="g2970"
   transform="matrix(1.9156998,0,0,1.9156998,-18.975913,72.878374)"><path
     style="fill:#ff0000;fill-rule:nonzero;stroke:none"
     d="m 21.059,-14.086001 c -13.32,26.638 -16.346,42.38 0,26.031 16.347,-16.344 22.399,-19.977 22.399,-10.896 0,9.082 14.834,12.41 16.348,1.815 1.514,-10.595 -0.605,-26.033 -7.266,-19.373 -6.661,6.66 -13.016,6.055 -13.016,0.305 0,-5.753 1.664,-26.487 -3.936,-20.889 -5.601,5.6 -14.53,23.007 -14.53,23.007 z"
     id="path67"
     inkscape:connector-curvature="0" /><path
     style="fill-rule:nonzero;stroke:none;fill:#ffffff"
     d="m 40.395,16.344999 c 0,3.326 -2.431,6.02 -5.431,6.02 -2.998,0 -5.43,-2.693 -5.43,-6.02 0,-3.327 2.432,-6.021 5.43,-6.021 3,0 5.431,2.695 5.431,6.021 z"
     id="path69"
     inkscape:connector-curvature="0" /></g>

</svg>